<svg id="svg" version="1.1" xmlns="http://www.w3.org/2000/svg" xmlns:xlink="http://www.w3.org/1999/xlink" width="400" height="66.66666666666667" viewBox="0, 0, 400,66.66666666666667"><g id="svgg"><path id="path0" d="M15.801 1.421 C 15.762 1.460,15.553 1.519,15.337 1.552 C 14.785 1.637,14.790 1.577,14.713 8.442 L 14.644 14.635 16.250 15.395 C 18.984 16.691,19.752 17.223,19.813 17.865 C 19.841 18.168,19.887 18.642,19.914 18.917 C 19.940 19.192,19.971 19.513,19.981 19.630 C 20.004 19.893,49.427 19.919,49.590 19.656 C 49.643 19.570,49.761 19.500,49.853 19.500 C 49.945 19.500,49.977 19.569,49.925 19.652 C 49.874 19.736,49.925 19.847,50.041 19.898 C 50.156 19.949,50.100 19.974,49.917 19.953 C 49.547 19.913,49.412 25.288,49.357 42.172 L 49.333 49.261 50.625 49.693 C 51.958 50.138,51.944 50.125,52.623 51.518 C 52.785 51.850,53.327 52.696,53.830 53.399 L 54.743 54.678 61.191 54.631 C 64.737 54.605,67.702 54.521,67.778 54.444 C 67.966 54.255,67.955 34.882,67.766 33.417 C 67.648 32.500,67.588 32.339,67.491 32.667 C 67.377 33.047,67.364 33.032,67.338 32.500 C 67.315 32.016,67.286 31.973,67.167 32.250 C 67.035 32.557,67.022 32.551,67.000 32.167 C 66.979 31.787,66.965 31.780,66.845 32.083 C 66.731 32.372,66.697 32.341,66.589 31.853 C 66.498 31.442,66.424 31.351,66.318 31.519 C 66.197 31.711,66.171 31.708,66.167 31.500 C 66.162 31.278,66.144 31.278,66.000 31.500 C 65.911 31.637,65.837 31.685,65.836 31.605 C 65.834 31.525,65.726 31.548,65.596 31.656 C 65.178 32.003,61.928 28.941,60.540 26.893 C 60.158 26.330,59.420 25.506,58.901 25.063 C 58.382 24.619,57.717 23.899,57.423 23.464 C 56.952 22.764,54.667 20.807,54.667 21.104 C 54.667 21.167,54.517 21.083,54.333 20.917 C 54.009 20.623,54.000 20.626,53.987 21.016 C 53.979 21.266,53.939 21.323,53.882 21.167 C 53.625 20.470,53.255 20.272,53.145 20.773 C 53.047 21.216,53.038 21.206,53.020 20.625 C 52.997 19.911,52.672 19.762,52.656 20.458 L 52.646 20.917 52.486 20.518 C 52.398 20.298,52.370 19.980,52.424 19.810 C 52.501 19.569,52.459 19.526,52.232 19.613 C 52.007 19.699,51.967 19.660,52.052 19.439 C 52.120 19.262,52.068 19.118,51.915 19.060 C 51.779 19.008,51.710 18.898,51.761 18.816 C 51.812 18.734,51.785 18.667,51.702 18.667 C 51.619 18.667,51.462 18.498,51.354 18.292 C 51.215 18.027,51.191 18.015,51.275 18.250 C 51.340 18.433,51.391 18.796,51.387 19.056 C 51.382 19.395,51.424 19.465,51.536 19.306 C 51.664 19.123,51.682 19.123,51.634 19.304 C 51.601 19.426,51.532 19.501,51.480 19.471 C 51.006 19.202,50.832 19.947,50.796 22.395 L 50.760 24.917 50.709 22.459 C 50.667 20.455,50.706 19.929,50.917 19.606 C 51.169 19.221,51.165 19.213,50.730 19.296 C 50.424 19.355,50.320 19.322,50.401 19.193 C 50.478 19.067,50.421 19.041,50.231 19.114 C 50.016 19.196,49.980 19.165,50.085 18.987 C 50.186 18.814,50.137 18.822,49.904 19.016 C 49.727 19.162,49.358 19.271,49.083 19.257 C 48.808 19.243,45.583 19.203,41.917 19.169 C 34.870 19.102,36.142 18.967,45.167 18.823 C 48.076 18.777,48.336 18.754,46.917 18.667 L 45.250 18.565 47.283 18.532 C 48.963 18.506,49.342 18.545,49.460 18.756 C 49.583 18.975,49.650 18.957,49.922 18.631 C 50.098 18.422,50.134 18.344,50.004 18.458 C 49.683 18.740,49.412 18.724,49.650 18.437 C 49.891 18.146,49.461 18.014,48.167 17.981 L 47.250 17.958 48.292 17.798 C 49.334 17.637,49.725 17.333,48.889 17.333 C 48.277 17.333,48.510 17.149,49.144 17.131 C 49.468 17.122,49.615 17.049,49.546 16.933 C 49.485 16.832,49.557 16.848,49.704 16.967 C 49.939 17.158,49.967 17.131,49.925 16.755 C 49.900 16.519,49.955 16.278,50.048 16.220 C 50.142 16.162,50.169 16.195,50.108 16.293 C 50.047 16.391,50.091 16.503,50.204 16.540 C 50.427 16.614,50.884 15.884,50.751 15.668 C 50.707 15.597,50.838 15.487,51.044 15.424 C 51.313 15.342,51.351 15.284,51.179 15.215 C 51.048 15.162,50.815 15.276,50.658 15.469 C 50.351 15.849,50.167 15.788,50.167 15.306 C 50.167 15.101,50.289 15.000,50.537 15.000 C 51.209 15.000,50.422 14.454,47.888 13.164 C 45.573 11.985,45.491 11.924,43.722 10.075 C 40.763 6.983,40.205 6.334,40.490 6.322 C 40.663 6.315,40.625 6.250,40.375 6.130 C 39.968 5.934,39.874 5.669,40.208 5.663 C 40.323 5.661,40.237 5.521,40.017 5.352 C 39.715 5.120,39.674 5.022,39.850 4.952 C 39.989 4.897,39.927 4.854,39.698 4.846 C 39.487 4.839,39.356 4.765,39.408 4.681 C 39.460 4.597,39.408 4.490,39.293 4.444 C 39.176 4.397,39.231 4.348,39.417 4.334 C 39.624 4.318,39.499 4.225,39.083 4.088 L 38.417 3.868 39.167 3.826 L 39.917 3.783 39.167 3.667 C 38.648 3.586,38.561 3.542,38.885 3.525 C 39.150 3.511,39.308 3.428,39.250 3.333 C 39.192 3.239,39.332 3.167,39.573 3.167 C 40.155 3.167,40.109 2.948,39.458 2.624 L 38.917 2.355 39.458 2.344 C 40.044 2.332,40.229 1.918,39.708 1.782 C 39.431 1.709,39.431 1.704,39.708 1.686 C 39.869 1.675,40.000 1.590,40.000 1.496 C 40.000 1.330,15.966 1.256,15.801 1.421 M51.331 20.792 C 51.329 21.319,51.272 21.662,51.204 21.554 C 51.081 21.361,51.137 19.833,51.267 19.833 C 51.303 19.833,51.332 20.265,51.331 20.792 M51.623 22.958 C 51.588 23.394,51.560 23.037,51.560 22.167 C 51.560 21.296,51.588 20.940,51.623 21.375 C 51.657 21.810,51.657 22.523,51.623 22.958 M49.955 22.958 C 49.919 23.302,49.889 23.021,49.889 22.333 C 49.889 21.646,49.919 21.365,49.955 21.708 C 49.991 22.052,49.991 22.615,49.955 22.958 M51.285 24.540 C 51.245 24.747,51.211 24.617,51.209 24.250 C 51.207 23.883,51.239 23.714,51.281 23.873 C 51.323 24.032,51.324 24.332,51.285 24.540 M20.292 25.451 C 20.498 25.491,20.835 25.491,21.042 25.451 C 21.248 25.411,21.079 25.379,20.667 25.379 C 20.254 25.379,20.085 25.411,20.292 25.451 " stroke="none" fill="#62af7c" fill-rule="evenodd"></path><path id="path1" d="M1.533 14.867 C 1.219 15.181,1.245 64.886,1.560 65.147 C 1.910 65.438,54.230 65.408,54.472 65.117 C 54.587 64.979,54.653 63.103,54.662 59.735 L 54.675 54.565 53.796 53.345 C 53.312 52.674,52.785 51.854,52.623 51.521 C 51.965 50.165,51.941 50.141,50.763 49.733 C 49.666 49.353,49.407 49.333,45.471 49.333 L 41.333 49.333 41.319 43.958 C 41.299 36.263,41.317 36.349,39.670 36.155 C 37.293 35.874,36.169 36.303,36.164 37.490 C 36.161 38.330,35.999 38.833,35.731 38.833 C 35.604 38.833,35.499 38.927,35.497 39.042 C 35.496 39.190,35.453 39.183,35.347 39.017 C 35.190 38.769,34.081 38.852,33.800 39.133 C 33.519 39.415,33.435 40.523,33.684 40.681 C 33.850 40.786,33.857 40.829,33.708 40.831 C 33.594 40.832,33.500 40.929,33.500 41.046 C 33.500 41.163,33.350 41.388,33.167 41.545 C 32.983 41.702,32.833 41.756,32.833 41.665 C 32.833 41.314,31.657 41.494,31.242 41.909 C 30.827 42.324,30.647 43.500,30.998 43.500 C 31.089 43.500,31.035 43.650,30.878 43.833 C 30.705 44.035,30.386 44.167,30.071 44.167 C 28.714 44.167,28.041 44.907,28.196 46.230 C 28.256 46.744,28.230 46.772,27.671 46.806 C 26.165 46.899,25.500 47.519,25.500 48.828 L 25.500 49.333 22.750 49.333 L 20.000 49.333 20.000 45.340 L 20.000 41.347 21.292 41.299 L 22.583 41.250 22.632 39.958 L 22.681 38.667 23.807 38.667 C 25.220 38.667,25.333 38.552,25.333 37.133 L 25.333 36.000 26.467 36.000 C 27.126 36.000,27.684 35.916,27.800 35.800 C 27.916 35.684,28.000 35.126,28.000 34.467 L 28.000 33.333 29.133 33.333 C 30.549 33.333,30.667 33.218,30.667 31.824 L 30.667 30.714 31.704 30.606 C 33.198 30.450,33.250 30.362,33.250 28.000 C 33.250 25.153,33.957 25.417,26.327 25.417 L 20.000 25.417 19.981 22.417 C 19.971 20.767,19.940 19.192,19.914 18.917 C 19.887 18.642,19.841 18.168,19.813 17.865 C 19.753 17.225,18.983 16.690,16.284 15.411 L 14.711 14.667 8.222 14.667 C 3.398 14.667,1.682 14.718,1.533 14.867 " stroke="none" fill="#fcbd52" fill-rule="evenodd"></path><path id="path2" d="M40.000 1.485 C 40.000 1.571,39.869 1.677,39.708 1.718 C 39.431 1.791,39.431 1.796,39.708 1.814 C 40.262 1.851,40.034 2.333,39.458 2.344 L 38.917 2.355 39.458 2.624 C 40.109 2.948,40.155 3.167,39.573 3.167 C 39.332 3.167,39.192 3.239,39.250 3.333 C 39.308 3.428,39.150 3.511,38.885 3.525 C 38.561 3.542,38.648 3.586,39.167 3.667 L 39.917 3.783 39.167 3.826 L 38.417 3.868 39.083 4.088 C 39.499 4.225,39.624 4.318,39.417 4.334 C 39.231 4.348,39.176 4.397,39.293 4.444 C 39.408 4.490,39.460 4.597,39.408 4.681 C 39.356 4.765,39.487 4.839,39.698 4.846 C 39.927 4.854,39.989 4.897,39.850 4.952 C 39.674 5.022,39.715 5.120,40.017 5.352 C 40.237 5.521,40.323 5.661,40.208 5.663 C 39.874 5.669,39.968 5.934,40.375 6.130 C 40.625 6.250,40.663 6.315,40.490 6.322 C 40.205 6.334,40.763 6.983,43.722 10.075 C 45.491 11.924,45.573 11.985,47.888 13.164 C 50.422 14.454,51.209 15.000,50.537 15.000 C 50.289 15.000,50.167 15.101,50.167 15.306 C 50.167 15.788,50.351 15.849,50.658 15.469 C 50.815 15.276,51.048 15.162,51.179 15.215 C 51.351 15.284,51.313 15.342,51.044 15.424 C 50.838 15.487,50.707 15.597,50.751 15.668 C 50.884 15.884,50.427 16.614,50.204 16.540 C 50.091 16.503,50.047 16.391,50.108 16.293 C 50.169 16.195,50.142 16.162,50.048 16.220 C 49.955 16.278,49.900 16.519,49.925 16.755 C 49.967 17.131,49.939 17.158,49.704 16.967 C 49.557 16.848,49.485 16.832,49.546 16.933 C 49.615 17.049,49.468 17.122,49.144 17.131 C 48.510 17.149,48.277 17.333,48.889 17.333 C 49.725 17.333,49.334 17.637,48.292 17.798 L 47.250 17.958 48.167 17.981 C 49.461 18.014,49.891 18.146,49.650 18.437 C 49.412 18.724,49.683 18.740,50.004 18.458 C 50.134 18.344,50.098 18.422,49.922 18.631 C 49.650 18.957,49.583 18.975,49.460 18.756 C 49.342 18.545,48.963 18.506,47.283 18.532 L 45.250 18.565 46.917 18.667 C 48.336 18.754,48.076 18.777,45.167 18.823 C 36.142 18.967,34.870 19.102,41.917 19.169 C 45.583 19.203,48.808 19.243,49.083 19.257 C 49.358 19.271,49.727 19.162,49.904 19.016 C 50.137 18.822,50.186 18.814,50.085 18.987 C 49.980 19.165,50.016 19.196,50.231 19.114 C 50.421 19.041,50.478 19.067,50.401 19.193 C 50.320 19.322,50.424 19.355,50.730 19.296 C 51.165 19.213,51.169 19.221,50.917 19.606 C 50.706 19.929,50.667 20.455,50.709 22.459 L 50.760 24.917 50.796 22.395 C 50.832 19.947,51.006 19.202,51.480 19.471 C 51.532 19.501,51.601 19.426,51.634 19.304 C 51.682 19.123,51.664 19.123,51.536 19.306 C 51.424 19.465,51.382 19.395,51.387 19.056 C 51.391 18.796,51.340 18.433,51.275 18.250 C 51.191 18.015,51.215 18.027,51.354 18.292 C 51.462 18.498,51.619 18.667,51.702 18.667 C 51.785 18.667,51.812 18.734,51.761 18.816 C 51.710 18.898,51.779 19.008,51.915 19.060 C 52.068 19.118,52.120 19.262,52.052 19.439 C 51.967 19.660,52.007 19.699,52.232 19.613 C 52.459 19.526,52.501 19.569,52.424 19.810 C 52.370 19.980,52.398 20.298,52.486 20.518 L 52.646 20.917 52.656 20.458 C 52.672 19.762,52.997 19.911,53.020 20.625 C 53.038 21.206,53.047 21.216,53.145 20.773 C 53.255 20.272,53.625 20.470,53.882 21.167 C 53.939 21.323,53.979 21.266,53.987 21.016 C 54.000 20.626,54.009 20.623,54.333 20.917 C 54.517 21.083,54.667 21.167,54.667 21.104 C 54.667 20.807,56.952 22.764,57.423 23.464 C 57.717 23.899,58.382 24.619,58.901 25.063 C 59.420 25.506,60.158 26.330,60.540 26.893 C 61.928 28.941,65.178 32.003,65.596 31.656 C 65.726 31.548,65.834 31.525,65.836 31.605 C 65.837 31.685,65.911 31.637,66.000 31.500 C 66.144 31.278,66.162 31.278,66.167 31.500 C 66.171 31.708,66.197 31.711,66.318 31.519 C 66.424 31.351,66.498 31.442,66.589 31.853 C 66.697 32.341,66.731 32.372,66.845 32.083 C 66.965 31.780,66.979 31.787,67.000 32.167 C 67.022 32.551,67.035 32.557,67.167 32.250 C 67.286 31.973,67.315 32.016,67.338 32.500 C 67.364 33.032,67.377 33.047,67.491 32.667 C 67.617 32.243,67.758 33.151,67.890 35.250 C 67.919 35.708,67.936 28.346,67.929 18.889 C 67.922 9.432,67.854 1.632,67.778 1.556 C 67.580 1.358,40.000 1.288,40.000 1.485 M49.601 19.639 C 49.553 19.715,49.305 19.763,49.049 19.745 C 48.746 19.724,48.715 19.738,48.958 19.784 L 49.333 19.855 49.372 26.636 L 49.411 33.417 49.497 26.667 C 49.582 20.041,49.589 19.917,49.917 19.953 C 50.100 19.974,50.156 19.949,50.041 19.898 C 49.925 19.847,49.874 19.736,49.925 19.652 C 49.977 19.569,49.945 19.500,49.853 19.500 C 49.761 19.500,49.648 19.562,49.601 19.639 M51.140 20.596 C 51.106 21.015,51.135 21.446,51.204 21.554 C 51.272 21.662,51.329 21.319,51.331 20.792 C 51.334 19.644,51.224 19.532,51.140 20.596 M51.560 22.167 C 51.560 23.037,51.588 23.394,51.623 22.958 C 51.657 22.523,51.657 21.810,51.623 21.375 C 51.588 20.940,51.560 21.296,51.560 22.167 M49.889 22.333 C 49.889 23.021,49.919 23.302,49.955 22.958 C 49.991 22.615,49.991 22.052,49.955 21.708 C 49.919 21.365,49.889 21.646,49.889 22.333 M51.209 24.250 C 51.211 24.617,51.245 24.747,51.285 24.540 C 51.324 24.332,51.323 24.032,51.281 23.873 C 51.239 23.714,51.207 23.883,51.209 24.250 " stroke="none" fill="#2e9260" fill-rule="evenodd"></path><path id="path3" d="M169.447 4.108 C 169.385 4.171,169.333 6.562,169.333 9.421 L 169.333 14.619 165.867 14.703 C 161.294 14.812,161.600 14.606,161.356 17.750 C 161.277 18.758,161.203 19.239,161.190 18.817 C 161.163 17.925,160.803 17.501,160.070 17.498 C 158.696 17.493,158.378 17.339,158.283 16.632 C 158.171 15.795,157.621 15.199,156.848 15.077 C 156.519 15.025,156.120 14.911,155.961 14.824 C 155.504 14.576,137.784 14.616,137.533 14.867 C 137.417 14.983,137.333 15.539,137.333 16.193 L 137.333 17.319 136.042 17.368 L 134.750 17.417 134.702 18.854 L 134.654 20.291 133.968 20.383 C 132.382 20.596,132.103 21.521,132.092 26.611 C 132.082 30.818,131.990 30.553,133.488 30.638 L 134.625 30.702 134.699 33.023 C 134.795 36.026,134.639 35.872,137.661 35.968 L 140.000 36.043 140.017 36.813 C 140.042 37.979,140.208 38.405,140.673 38.500 C 140.899 38.546,139.058 38.621,136.583 38.667 L 132.083 38.750 132.038 42.333 C 131.961 48.452,132.095 49.021,133.647 49.133 L 134.632 49.204 134.694 50.424 C 134.773 51.991,134.621 51.908,137.513 51.970 L 140.000 52.024 140.000 53.083 C 140.000 54.788,139.386 54.667,148.000 54.667 C 156.619 54.667,156.000 54.790,156.000 53.071 L 156.000 52.000 157.266 52.000 C 158.384 52.000,158.541 51.962,158.617 51.672 C 158.664 51.492,158.845 51.299,159.019 51.244 C 159.529 51.082,160.274 50.379,160.492 49.853 C 160.603 49.584,160.838 49.327,161.014 49.281 C 161.300 49.207,161.333 49.035,161.333 47.630 L 161.333 46.062 161.901 45.791 C 162.214 45.642,162.591 45.347,162.740 45.135 C 163.990 43.359,163.917 43.603,163.917 41.234 C 163.917 39.883,163.846 38.962,163.731 38.817 C 163.629 38.689,163.493 38.358,163.428 38.083 C 163.265 37.396,162.552 36.692,161.893 36.568 L 161.345 36.465 161.298 34.941 L 161.250 33.417 159.958 33.368 L 158.667 33.319 158.667 32.193 C 158.667 30.650,158.698 30.667,155.819 30.667 L 153.371 30.667 153.306 29.509 C 153.219 27.985,153.531 28.090,148.920 28.033 L 144.867 27.984 144.765 27.438 C 144.637 26.758,143.909 26.040,143.202 25.899 C 142.262 25.711,142.567 25.379,143.750 25.303 C 145.094 25.218,145.218 25.094,145.303 23.750 L 145.372 22.667 146.678 22.667 L 147.983 22.667 148.098 23.678 C 148.241 24.947,148.400 25.099,149.720 25.241 L 150.789 25.355 150.891 26.211 C 151.082 27.823,151.892 28.035,157.583 27.963 L 161.250 27.917 161.338 24.250 C 161.387 22.233,161.443 20.897,161.463 21.280 C 161.506 22.091,161.843 22.499,162.470 22.502 C 163.926 22.508,164.123 22.633,164.204 23.611 C 164.319 25.005,164.448 25.074,167.088 25.138 L 169.331 25.192 169.374 38.555 L 169.417 51.917 170.690 51.965 L 171.963 52.013 172.028 53.164 C 172.064 53.797,172.153 54.376,172.227 54.449 C 172.405 54.627,187.599 54.623,187.778 54.445 C 188.072 54.151,188.041 44.565,187.745 44.269 C 187.509 44.033,186.849 44.000,182.405 44.000 L 177.333 44.000 177.333 34.583 L 177.333 25.167 180.672 25.167 C 183.992 25.167,185.167 24.997,185.167 24.516 C 185.167 24.220,186.733 22.763,187.240 22.587 C 187.939 22.344,188.041 21.751,187.974 18.298 C 187.898 14.364,188.523 14.763,182.330 14.697 L 177.338 14.644 177.294 9.364 L 177.250 4.083 173.406 4.039 C 171.291 4.014,169.510 4.045,169.447 4.108 M87.339 14.814 C 86.875 14.944,86.708 15.379,86.683 16.523 L 86.667 17.296 85.509 17.361 C 84.872 17.397,84.291 17.487,84.217 17.560 C 84.144 17.634,84.083 21.194,84.083 25.472 L 84.083 33.250 85.375 33.299 L 86.667 33.347 86.667 34.474 C 86.667 35.900,86.772 36.000,88.283 36.000 L 89.500 36.000 89.500 36.815 C 89.500 38.518,89.956 38.644,96.185 38.658 L 99.953 38.667 100.061 39.704 C 100.196 40.993,100.340 41.138,101.630 41.272 L 102.667 41.381 102.667 42.690 L 102.667 44.000 98.677 44.000 L 94.687 44.000 94.584 43.208 C 94.367 41.530,94.470 41.633,92.799 41.417 L 92.014 41.315 91.965 40.032 L 91.917 38.750 86.853 38.706 C 83.148 38.674,81.726 38.715,81.553 38.859 C 81.289 39.077,81.287 46.177,81.551 46.440 C 81.624 46.513,82.203 46.603,82.836 46.638 L 83.987 46.704 84.035 47.977 L 84.083 49.250 85.368 49.299 L 86.653 49.347 86.701 50.632 L 86.750 51.917 88.023 51.965 L 89.295 52.013 89.364 53.090 C 89.466 54.696,88.850 54.577,97.360 54.630 C 105.949 54.683,105.333 54.798,105.333 53.146 L 105.333 52.000 107.738 52.000 C 110.654 52.000,110.667 51.993,110.667 50.332 L 110.667 49.187 111.423 49.074 C 113.152 48.814,113.319 48.134,113.327 41.325 C 113.334 35.686,113.423 36.000,111.826 36.000 L 110.718 36.000 110.615 33.719 C 110.479 30.706,110.623 30.844,107.457 30.715 L 105.027 30.617 104.852 29.922 C 104.460 28.365,103.230 28.005,98.292 28.002 L 94.667 28.000 94.667 26.929 C 94.667 26.207,94.586 25.777,94.421 25.612 C 94.205 25.396,94.205 25.342,94.421 25.163 C 94.594 25.020,94.667 24.619,94.667 23.813 L 94.667 22.667 96.145 22.667 L 97.623 22.667 97.714 23.350 C 97.829 24.203,98.374 24.800,99.152 24.923 C 99.481 24.975,99.880 25.089,100.039 25.176 C 100.199 25.262,100.852 25.333,101.491 25.333 L 102.653 25.333 102.701 26.625 L 102.750 27.917 105.968 27.962 L 109.187 28.007 109.818 28.670 C 110.601 29.494,110.732 29.494,111.519 28.667 C 111.906 28.259,112.305 28.000,112.543 28.000 C 113.253 28.000,113.333 27.737,113.333 25.395 C 113.333 22.724,113.300 22.667,111.738 22.667 L 110.667 22.667 110.667 20.200 C 110.667 17.298,110.685 17.333,109.133 17.333 L 108.000 17.333 108.000 16.262 C 108.000 14.522,108.935 14.664,97.613 14.683 C 92.188 14.692,87.565 14.751,87.339 14.814 M116.757 14.810 C 115.984 14.978,115.983 15.005,116.035 34.833 C 116.086 54.606,116.057 53.913,116.879 54.361 C 117.542 54.722,126.031 54.779,126.385 54.424 C 126.648 54.161,126.665 52.781,126.626 34.446 L 126.583 14.750 121.917 14.727 C 119.350 14.714,117.028 14.752,116.757 14.810 M196.208 14.858 C 196.083 14.984,196.000 15.515,196.000 16.193 L 196.000 17.319 194.708 17.368 L 193.417 17.417 193.368 18.708 L 193.319 20.000 192.193 20.000 C 190.650 20.000,190.667 19.969,190.667 22.847 L 190.667 25.295 189.584 25.363 C 187.970 25.466,188.090 24.847,188.037 33.360 C 187.987 41.313,187.989 41.333,188.766 41.333 C 189.009 41.333,189.445 41.621,189.912 42.088 L 190.667 42.842 190.667 44.676 C 190.667 46.096,190.719 46.531,190.900 46.600 C 191.029 46.649,191.180 46.934,191.236 47.232 C 191.362 47.904,192.091 48.627,192.783 48.765 C 193.368 48.882,193.494 49.161,193.498 50.343 C 193.502 51.713,194.099 51.958,197.523 51.990 L 198.629 52.000 198.694 53.158 C 198.730 53.794,198.820 54.376,198.894 54.449 C 199.069 54.624,214.264 54.624,214.440 54.449 C 214.513 54.376,214.603 53.794,214.639 53.158 L 214.704 52.000 215.951 52.000 C 217.040 52.000,217.208 51.960,217.281 51.680 C 217.327 51.504,217.584 51.270,217.853 51.159 C 218.379 50.941,219.082 50.196,219.244 49.686 C 219.299 49.512,219.492 49.331,219.672 49.284 C 219.962 49.208,220.000 49.051,220.000 47.932 L 220.000 46.667 221.146 46.667 C 222.742 46.667,222.681 46.841,222.628 42.479 L 222.583 38.750 222.000 38.682 L 221.417 38.613 221.915 38.514 C 222.622 38.372,222.625 38.347,222.647 30.242 C 222.669 22.080,222.786 22.667,221.145 22.667 L 220.024 22.667 219.970 20.180 C 219.908 17.299,219.985 17.446,218.499 17.362 L 217.348 17.297 217.248 16.523 C 217.083 15.247,217.016 15.043,216.710 14.896 C 216.198 14.651,196.452 14.613,196.208 14.858 M228.111 14.778 C 227.833 15.055,227.989 54.132,228.269 54.412 C 228.628 54.771,238.005 54.729,238.367 54.367 C 238.540 54.193,238.592 51.287,238.628 39.742 L 238.672 25.333 244.000 25.333 L 249.328 25.333 249.372 39.819 C 249.397 47.787,249.479 54.368,249.555 54.444 C 249.849 54.739,259.435 54.708,259.731 54.412 C 259.974 54.169,260.000 52.878,260.000 41.082 L 260.000 28.020 260.792 27.918 C 262.471 27.700,262.367 27.804,262.584 26.125 L 262.687 25.333 266.668 25.333 L 270.649 25.333 270.701 39.458 C 270.754 53.787,270.766 54.026,271.395 54.370 C 272.041 54.723,280.704 54.772,281.051 54.425 C 281.415 54.061,281.495 20.562,281.133 20.200 C 281.017 20.084,280.461 20.000,279.807 20.000 L 278.681 20.000 278.632 18.708 L 278.583 17.417 277.299 17.368 L 276.014 17.320 275.965 16.035 L 275.917 14.750 268.250 14.706 C 258.766 14.651,258.010 14.767,257.731 16.315 C 257.535 17.404,257.505 17.422,256.017 17.362 L 254.667 17.308 254.667 16.187 C 254.667 15.538,254.583 14.983,254.467 14.867 C 254.195 14.595,238.990 14.577,238.719 14.848 C 238.588 14.978,238.506 14.978,238.426 14.848 C 238.302 14.648,228.309 14.580,228.111 14.778 M286.854 14.891 C 286.626 15.167,286.660 54.216,286.889 54.444 C 286.965 54.521,292.227 54.604,298.582 54.628 C 311.536 54.679,310.648 54.765,310.688 53.446 L 310.708 52.750 310.823 53.455 C 311.004 54.561,311.312 54.641,315.446 54.657 C 318.671 54.669,318.667 54.671,318.667 53.071 L 318.667 52.000 319.738 52.000 C 321.351 52.000,321.333 52.039,321.333 48.492 L 321.333 45.509 322.088 44.754 L 322.842 44.000 330.074 44.000 L 337.306 44.000 337.361 47.742 C 337.424 52.001,337.352 51.801,338.887 51.944 L 340.000 52.048 340.000 53.096 C 340.000 54.692,339.942 54.667,343.720 54.664 C 347.355 54.662,347.625 54.620,347.870 54.019 L 348.047 53.583 348.154 53.991 C 348.228 54.273,348.431 54.442,348.813 54.541 C 349.520 54.724,370.986 54.626,371.376 54.438 C 371.683 54.290,371.750 54.088,371.917 52.799 L 372.018 52.014 373.301 51.965 L 374.583 51.917 374.632 50.632 L 374.680 49.347 375.965 49.299 L 377.250 49.250 377.293 41.519 C 377.343 32.695,377.458 33.333,375.813 33.333 L 374.667 33.333 374.667 32.019 L 374.667 30.704 375.824 30.639 C 377.356 30.552,377.244 30.954,377.299 25.387 C 377.355 19.697,377.438 20.000,375.839 20.000 L 374.718 20.000 374.611 18.017 C 374.488 15.721,374.345 15.237,373.711 14.957 C 373.054 14.667,348.580 14.559,348.236 14.845 C 348.036 15.011,347.996 17.638,347.975 32.312 C 347.961 41.811,347.904 49.108,347.849 48.526 C 347.723 47.200,347.355 46.833,346.148 46.833 L 345.333 46.833 345.333 44.283 C 345.333 41.292,345.355 41.333,343.811 41.333 L 342.690 41.333 342.636 37.591 C 342.576 33.313,342.644 33.500,341.099 33.376 L 340.000 33.288 340.000 30.830 C 340.000 28.973,339.939 28.255,339.751 27.894 C 339.614 27.631,339.502 27.296,339.501 27.147 C 339.499 26.633,338.823 26.002,338.071 25.813 L 337.333 25.627 337.333 23.075 C 337.333 20.016,337.325 20.000,335.742 20.000 L 334.675 20.000 334.629 17.375 L 334.583 14.750 329.520 14.706 C 325.923 14.674,324.391 14.717,324.228 14.851 C 324.053 14.997,324.000 15.637,324.000 17.604 L 324.000 20.167 323.185 20.167 C 321.561 20.167,321.359 20.754,321.342 25.523 L 321.333 27.962 320.176 28.028 C 318.667 28.113,318.758 27.904,318.698 31.436 L 318.646 34.512 317.902 35.256 C 317.367 35.791,317.024 36.000,316.680 36.000 C 316.035 36.000,316.000 36.150,316.000 38.907 L 316.000 41.286 314.963 41.394 C 313.433 41.554,313.434 41.552,313.322 44.797 C 313.269 46.329,313.212 47.419,313.196 47.218 C 313.180 47.017,313.100 46.812,313.019 46.762 C 312.938 46.711,312.824 46.420,312.767 46.114 C 312.709 45.809,312.434 45.339,312.154 45.071 L 311.645 44.583 303.157 44.537 L 294.668 44.491 294.626 29.621 L 294.583 14.750 290.815 14.705 C 287.765 14.669,287.009 14.705,286.854 14.891 M27.292 19.958 C 31.348 19.983,37.985 19.983,42.042 19.958 C 46.098 19.933,42.779 19.913,34.667 19.913 C 26.554 19.913,23.235 19.933,27.292 19.958 M207.122 25.025 C 207.255 25.156,208.148 25.253,209.663 25.301 L 212.000 25.376 212.000 26.688 L 212.000 28.000 206.467 28.000 C 202.163 28.000,200.978 27.956,201.133 27.800 C 201.249 27.685,201.333 27.132,201.333 26.492 L 201.333 25.384 203.223 25.276 C 206.083 25.113,206.464 24.871,206.520 23.183 C 206.534 22.742,206.589 22.879,206.728 23.703 C 206.832 24.319,207.009 24.913,207.122 25.025 M367.049 23.359 C 367.170 24.259,367.741 24.830,368.641 24.951 L 369.333 25.044 369.333 26.522 L 369.333 28.000 362.667 28.000 L 356.000 28.000 356.000 25.333 L 356.000 22.667 361.478 22.667 L 366.956 22.667 367.049 23.359 M329.888 30.126 C 330.037 30.275,330.547 30.421,331.075 30.465 L 332.000 30.541 332.000 31.937 L 332.000 33.333 329.333 33.333 L 326.667 33.333 326.667 32.019 L 326.667 30.704 327.824 30.639 C 329.247 30.558,329.222 30.583,329.319 29.116 L 329.398 27.917 329.512 28.890 C 329.575 29.426,329.744 29.982,329.888 30.126 M366.458 38.610 L 369.333 38.719 369.333 41.327 L 369.333 43.935 366.708 44.162 C 365.265 44.286,362.265 44.416,360.042 44.450 L 356.000 44.511 356.000 41.506 L 356.000 38.500 359.792 38.501 C 361.877 38.501,364.877 38.550,366.458 38.610 M150.667 39.738 C 150.667 41.144,150.856 41.333,152.262 41.333 L 153.333 41.333 153.333 42.667 L 153.333 44.000 148.000 44.000 L 142.667 44.000 142.664 41.792 C 142.662 39.334,142.591 38.885,142.191 38.778 C 142.040 38.738,143.885 38.697,146.292 38.686 L 150.667 38.667 150.667 39.738 M212.262 38.929 C 212.079 39.111,212.000 39.508,212.000 40.242 C 212.000 41.405,211.908 41.493,210.680 41.498 C 209.915 41.501,209.501 41.905,209.498 42.651 C 209.492 44.064,209.631 44.000,206.564 44.000 L 203.833 44.000 203.833 43.495 C 203.833 42.237,203.093 41.500,201.830 41.500 C 201.362 41.500,201.179 41.040,201.166 39.833 C 201.159 39.168,200.911 38.942,200.053 38.823 C 199.611 38.761,202.237 38.701,205.887 38.689 C 211.920 38.669,212.500 38.690,212.262 38.929 " stroke="none" fill="#1c1c1c" fill-rule="evenodd"></path><path id="path4" d="M33.380 40.958 C 33.320 41.119,33.154 41.348,33.010 41.468 C 32.788 41.653,32.802 41.660,33.104 41.514 C 33.299 41.421,33.498 41.192,33.547 41.005 C 33.655 40.591,33.531 40.556,33.380 40.958 " stroke="none" fill="#584454" fill-rule="evenodd"></path></g></svg>